<?xml version="1.0" encoding="UTF-8"?>
<svg xmlns="http://www.w3.org/2000/svg" viewBox="0 0 30 30">
    <path d="M25.1,8.8C25,8.8,25,8.8,25.1,8.8c-1.2-1.1-2.8-1.8-4.5-1.7c-1.6,0.1-3.1,0.8-4.1,2c-1.3,1.3-1.9,3.1-1.7,4.9L13,14.8
        c-0.2,0.1-0.3,0.2-0.3,0.4c0,0.2,0,0.3,0.1,0.4l1,1l-6.2,6.3c-1.1,1.1-0.2,3.5-0.1,3.7c0.1,0.2,0.3,0.3,0.5,0.3c0,0,0,0,0,0
        l3.3-0.1c0.1,0,0.3-0.1,0.4-0.2c0.1-0.1,0.1-0.2,0.1-0.4l-0.2-1.7l1.8,0.1c0.1,0,0.3-0.1,0.4-0.2c0.1-0.1,0.1-0.2,0.1-0.4l-0.1-1.4
        l1.3,0.2c0.2,0,0.3,0,0.4-0.1c0.1-0.1,0.2-0.2,0.2-0.4l-0.1-1.2l1,0.1c0.2,0,0.3,0,0.4-0.1l0.8-0.8l0.9,0.9
        c0.1,0.1,0.3,0.2,0.5,0.1c0.2,0,0.3-0.2,0.4-0.3l0.7-1.8c1.9,0.2,3.7-0.5,4.9-1.8c1.2-1.2,1.8-2.7,1.7-4.3
        C26.9,11.5,26.2,9.9,25.1,8.8z M24.4,16.7c-1.1,1.2-2.7,1.7-4.5,1.4c-0.2,0-0.5,0.1-0.6,0.3l-0.5,1.5l-0.7-0.7
        c-0.2-0.2-0.5-0.2-0.7,0l-1,1L15,20.1c-0.1,0-0.3,0-0.4,0.1c-0.1,0.1-0.2,0.2-0.1,0.4l0.1,1.2l-1.3-0.2c-0.2,0-0.3,0-0.4,0.1
        c-0.1,0.1-0.2,0.3-0.2,0.4l0.1,1.4L11,23.5c-0.1,0-0.3,0.1-0.4,0.2c-0.1,0.1-0.1,0.3-0.1,0.4l0.2,1.8l-2.4,0.1
        c-0.2-0.7-0.4-1.9,0-2.3l6.5-6.7c0.2-0.2,0.2-0.5,0-0.7l-0.8-0.8l1.4-0.6c0.2-0.1,0.3-0.3,0.3-0.5c-0.3-1.6,0.2-3.3,1.4-4.5
        c0.9-1,2.1-1.6,3.5-1.7C22,8,23.4,8.5,24.3,9.5c1,1,1.5,2.3,1.5,3.6C25.9,14.4,25.4,15.7,24.4,16.7z">
    </path>
    <path d="M20.4,10.7c-0.8,0.9-0.7,2.1,0.1,2.9c0.4,0.4,0.9,0.5,1.4,0.5c0.5,0,1.1-0.2,1.5-0.6c0,0,0,0,0,0c0.8-0.9,0.7-2.1-0.1-2.9
        C22.5,9.8,21.3,9.8,20.4,10.7z M22.6,12.8c-0.4,0.4-1,0.4-1.5,0.1c-0.4-0.4-0.5-1.1-0.1-1.5c0.2-0.2,0.6-0.4,0.9-0.4
        c0.2,0,0.5,0.1,0.6,0.3C23,11.7,23,12.3,22.6,12.8z">
    </path>
</svg>